<svg
                        xmlns="http://www.w3.org/2000/svg"
                        width="124.07207"
                        height="70.216454">
                    <g id="layer1"
                       transform="translate(68.782946,-743.95767)">
                    <path
                        id="user-8-icon"
                        d="m 46.09182,796.90148 c -9.953358,-2.32468 -19.21833,-4.36033 -14.731259,-12.92632 13.658131,-26.0737 3.620307,-40.01749 -10.802417,-40.01749 -14.7069804,0 -24.4978088,14.47899 -10.8024167,40.01749 4.6216107,8.61823 -4.9918528,10.65166 -14.7312587,12.92632 -9.9493106,2.32331 -9.1840436,7.63505 -9.1840436,17.27264 h 30.341419 l 2.037676,-10.59378 h 4.676911 l 2.037676,10.59378 h 30.341419 c 0,-9.63776 0.765267,-14.94933 -9.183706,-17.27264 z m -23.82308,4.02042 h -3.369264 l -2.633671,-5.58642 h 8.664425 l -2.66149,5.58642 z"
                        style="fill:#3771c8;fill-opacity:1"
                        />
                    <path
                        id="user-2-icon"
                        d="m -6.6585814,800.78892 c -8.8496816,-1.94027 -19.6252326,-6.9487 -16.4504426,-13.46968 2.039012,3.21141 8.356961,5.0687 13.2782594,2.2932 -14.1656784,-3.43412 6.9634392,-27.01131 -11.5503474,-40.22756 -6.756792,-4.84833 -16.547249,-4.90375 -23.197684,0 -18.513786,13.21625 2.615338,36.79344 -11.550347,40.22756 4.921298,2.7755 11.248806,0.83473 13.278266,-2.2932 3.174964,6.52165 -7.609979,11.53142 -16.450449,13.46968 -10.261279,2.24962 -9.467364,8.68545 -9.467364,13.3852 H 2.8084354 c 0,-4.69958 0.7944362,-11.13525 -9.4670168,-13.3852 z"
                        style="fill:#3771c8;fill-opacity:1"
                        inkscape:connector-curvature="0" />
                    </g>
                    </svg>
